<svg width="407" height="60" viewBox="0 0 407 60" fill="none" xmlns="http://www.w3.org/2000/svg">
<path d="M48.256 1.008C48.4693 1.008 48.576 1.11467 48.576 1.328C48.6187 1.49867 48.512 1.584 48.256 1.584C47.2747 1.62667 46.336 2.24533 45.44 3.44C44.5867 4.592 43.6053 6.576 42.496 9.392L30.656 40.048C30.5707 40.2187 30.528 40.4533 30.528 40.752C30.528 41.0507 30.592 41.328 30.72 41.584L31.04 42.352C31.1253 42.5227 31.168 42.736 31.168 42.992C31.168 43.376 30.976 43.6107 30.592 43.696L22.08 47.024C21.824 47.1093 21.632 47.152 21.504 47.152C20.992 47.152 20.6293 46.8533 20.416 46.256L6.016 9.392C4.90667 6.53333 3.94667 4.528 3.136 3.376C2.368 2.224 1.51467 1.62667 0.576 1.584C0.362667 1.584 0.256 1.49867 0.256 1.328C0.298667 1.11467 0.405333 1.008 0.576 1.008C2.112 1.136 3.11467 1.2 3.584 1.2H16.832C17.7707 1.2 19.52 1.136 22.08 1.008C22.4213 1.008 22.592 1.11467 22.592 1.328C22.592 1.49867 22.4213 1.584 22.08 1.584C20.7573 1.62667 19.648 2.01066 18.752 2.736C17.856 3.41866 17.408 4.48533 17.408 5.936C17.408 6.87466 17.664 8.048 18.176 9.456L29.696 39.344C29.7813 39.5573 29.888 39.6853 30.016 39.728C30.1867 39.728 30.2933 39.6 30.336 39.344L41.92 9.456C42.4747 8.048 42.752 6.78933 42.752 5.68C42.752 4.35733 42.368 3.35467 41.6 2.672C40.832 1.98933 39.872 1.62667 38.72 1.584C38.4213 1.584 38.272 1.49867 38.272 1.328C38.272 1.11467 38.4213 1.008 38.72 1.008C41.024 1.136 42.5813 1.2 43.392 1.2H44.928C45.6107 1.2 46.72 1.136 48.256 1.008ZM57.997 37.488C57.997 39.8773 58.253 41.8187 58.765 43.312C59.3197 44.7627 60.3437 45.5093 61.837 45.552C62.0503 45.552 62.157 45.6587 62.157 45.872C62.157 46.0853 62.0503 46.1707 61.837 46.128C61.0263 46.0853 57.997 46.064 52.749 46.064C47.4583 46.064 44.4077 46.0853 43.597 46.128C43.3837 46.128 43.277 46.0427 43.277 45.872C43.3197 45.6587 43.469 45.552 43.725 45.552C45.005 45.552 45.9437 44.8907 46.541 43.568C47.1383 42.2453 47.437 40.2187 47.437 37.488V26.8C47.437 24.4107 47.1597 22.768 46.605 21.872C46.093 20.9333 45.005 20.5493 43.341 20.72H43.277C43.149 20.72 43.0637 20.656 43.021 20.528C43.021 20.3573 43.1063 20.2507 43.277 20.208C45.7517 19.696 48.333 18.928 51.021 17.904C53.7517 16.88 56.0343 15.7707 57.869 14.576C58.125 14.4053 58.317 14.32 58.445 14.32C58.6157 14.32 58.701 14.4907 58.701 14.832C58.4023 17.904 58.2103 20.272 58.125 21.936C58.0397 23.6 57.997 25.584 57.997 27.888V37.488ZM51.085 10.992C49.3783 10.992 48.013 10.6293 46.989 9.904C46.0077 9.136 45.517 8.15467 45.517 6.96C45.517 5.424 46.1997 4.12267 47.565 3.056C48.973 1.98933 50.765 1.456 52.941 1.456C54.6477 1.456 56.013 1.86133 57.037 2.672C58.061 3.44 58.573 4.42133 58.573 5.616C58.573 7.10933 57.8477 8.38933 56.397 9.456C54.989 10.48 53.2183 10.992 51.085 10.992ZM108.373 33.136C108.373 32.88 108.458 32.752 108.629 32.752C108.842 32.7093 108.949 32.8373 108.949 33.136C108.949 35.9947 108.48 38.4907 107.541 40.624C106.602 42.7147 105.365 44.3147 103.829 45.424C102.293 46.5333 100.693 47.088 99.029 47.088C97.4503 47.088 96.0637 46.448 94.869 45.168C93.6743 43.888 92.7783 41.9893 92.181 39.472L88.021 22.576C87.6797 21.2107 87.253 20.2507 86.741 19.696C86.2717 19.0987 85.4823 18.8 84.373 18.8C82.8797 18.8 81.6637 19.568 80.725 21.104C79.829 22.64 79.253 24.6667 78.997 27.184V27.888V38.96C78.997 41.4773 79.2317 43.2053 79.701 44.144C80.213 45.04 81.2583 45.5093 82.837 45.552C83.0503 45.552 83.157 45.6587 83.157 45.872C83.157 46.0427 83.0503 46.128 82.837 46.128C80.8743 46.0427 78.2077 46 74.837 46C70.485 46 67.0717 46.0427 64.597 46.128C64.3837 46.128 64.277 46.0427 64.277 45.872C64.277 45.6587 64.405 45.552 64.661 45.552C65.7277 45.552 66.4957 45.4453 66.965 45.232C67.477 44.976 67.8397 44.3787 68.053 43.44C68.309 42.5013 68.437 40.9867 68.437 38.896V26.8C68.437 24.4107 68.1597 22.768 67.605 21.872C67.093 20.9333 66.005 20.5493 64.341 20.72H64.277C64.149 20.72 64.0637 20.656 64.021 20.528C64.021 20.3573 64.1063 20.2507 64.277 20.208C66.7517 19.696 69.333 18.928 72.021 17.904C74.7517 16.88 77.0343 15.7707 78.869 14.576C79.125 14.4053 79.317 14.32 79.445 14.32C79.6157 14.32 79.701 14.4907 79.701 14.832C79.4023 18.288 79.189 20.912 79.061 22.704C79.7863 20.528 81.0663 18.7147 82.901 17.264C84.7783 15.7707 86.997 15.024 89.557 15.024C92.245 15.024 94.3143 15.6427 95.765 16.88C97.2157 18.0747 98.2397 19.8667 98.837 22.256L102.741 38C102.997 38.9387 103.317 39.664 103.701 40.176C104.085 40.6453 104.597 40.88 105.237 40.88C106.176 40.88 106.944 40.0907 107.541 38.512C108.138 36.9333 108.416 35.1413 108.373 33.136ZM119.904 47.152C117.771 47.152 116.021 46.3627 114.656 44.784C113.291 43.1627 112.608 41.2213 112.608 38.96V18.672C112.608 18.032 112.523 17.5627 112.352 17.264C112.224 16.9227 111.861 16.752 111.264 16.752H109.024C108.768 16.752 108.64 16.688 108.64 16.56C108.683 16.432 108.811 16.3467 109.024 16.304C111.84 15.792 114.592 14.4907 117.28 12.4C119.968 10.3093 121.867 7.81333 122.976 4.912C123.019 4.61333 123.125 4.464 123.296 4.464C123.424 4.464 123.488 4.61333 123.488 4.912L123.168 14.96C123.168 15.5147 123.275 15.856 123.488 15.984C123.744 16.112 124.192 16.176 124.832 16.176H130.4C130.443 16.176 130.464 16.24 130.464 16.368C130.464 16.4533 130.421 16.5387 130.336 16.624C130.251 16.7093 130.123 16.752 129.952 16.752H124.96C124.235 16.752 123.744 16.8587 123.488 17.072C123.275 17.2853 123.168 17.6907 123.168 18.288V36.144C123.168 37.8507 123.488 39.152 124.128 40.048C124.768 40.9013 125.6 41.328 126.624 41.328C127.435 41.328 128.288 41.072 129.184 40.56C130.08 40.0053 130.933 39.2587 131.744 38.32C131.872 38.192 131.979 38.128 132.064 38.128C132.149 38.128 132.192 38.1707 132.192 38.256C132.235 38.3413 132.213 38.4693 132.128 38.64C129.909 41.584 127.755 43.7387 125.664 45.104C123.616 46.4693 121.696 47.152 119.904 47.152ZM170.286 33.136C170.286 32.88 170.371 32.752 170.542 32.752C170.755 32.7093 170.862 32.8373 170.862 33.136C170.862 35.9947 170.392 38.4907 169.454 40.624C168.515 42.7147 167.278 44.3147 165.742 45.424C164.206 46.5333 162.584 47.088 160.878 47.088C159.342 47.088 157.976 46.448 156.782 45.168C155.587 43.8453 154.712 41.9467 154.158 39.472L153.966 38.576C153.155 41.3493 151.832 43.4613 149.998 44.912C148.163 46.3627 146.136 47.088 143.918 47.088C141.443 47.088 139.352 46.5547 137.646 45.488C135.939 44.4213 134.68 43.0347 133.87 41.328C133.059 39.6213 132.696 37.8293 132.782 35.952C132.824 33.776 133.87 32.0693 135.918 30.832C138.008 29.5947 140.76 28.976 144.174 28.976C147.032 28.976 149.592 29.2107 151.854 29.68L150.318 23.344C149.848 21.3387 149.08 19.8453 148.014 18.864C146.947 17.8827 145.475 17.392 143.598 17.392C141.08 17.392 138.99 18.0533 137.326 19.376C135.662 20.6987 134.659 22.8747 134.318 25.904C134.232 26.2453 134.104 26.416 133.934 26.416C133.763 26.416 133.678 26.2453 133.678 25.904C134.104 22.1067 135.747 19.3547 138.606 17.648C141.507 15.8987 144.771 15.024 148.398 15.024C152.408 15.024 155.416 15.7493 157.422 17.2C159.427 18.6507 160.856 21.1467 161.71 24.688L164.718 38C165.144 39.92 165.955 40.88 167.15 40.88C168.088 40.88 168.835 40.112 169.39 38.576C169.987 36.9973 170.286 35.184 170.286 33.136ZM153.134 38.32C153.304 37.936 153.39 37.4667 153.39 36.912C153.39 36.528 153.368 36.208 153.326 35.952L152.046 30.64C150.424 30.1707 148.91 29.936 147.502 29.936C145.667 29.936 144.366 30.2987 143.598 31.024C142.872 31.7067 142.51 32.9867 142.51 34.864C142.51 36.8267 143.043 38.5333 144.11 39.984C145.219 41.4347 146.712 42.16 148.59 42.16C151.107 42.16 152.622 40.88 153.134 38.32ZM195.477 42.928C197.866 42.928 199.765 43.7173 201.173 45.296C202.581 46.8747 203.285 48.7307 203.285 50.864C203.285 53.4667 202.453 55.6 200.789 57.264C199.125 58.9707 196.821 59.824 193.877 59.824C190.591 59.824 187.903 58.6933 185.812 56.432C183.338 57.456 180.927 57.968 178.581 57.968C175.978 57.968 174.015 57.2853 172.693 55.92C171.37 54.5973 170.709 52.8267 170.709 50.608C170.709 48.4747 171.349 46.5547 172.629 44.848C173.909 43.1413 175.573 41.7333 177.621 40.624C175.402 39.6427 173.653 38.2347 172.373 36.4C171.093 34.5227 170.453 32.3253 170.453 29.808C170.453 26.9067 171.157 24.368 172.565 22.192C174.015 19.9733 175.957 18.2667 178.389 17.072C180.863 15.8347 183.594 15.216 186.581 15.216C188.202 15.216 189.866 15.4293 191.573 15.856C191.615 13.296 192.042 11.2053 192.853 9.584C193.706 7.92 194.73 6.72533 195.925 6C197.162 5.232 198.442 4.848 199.765 4.848C200.661 4.848 201.429 5.06133 202.069 5.488C202.709 5.91467 203.029 6.448 203.029 7.088C203.029 7.30133 203.007 7.472 202.965 7.6L201.429 13.36C201.215 14 200.895 14.32 200.469 14.32C200.255 14.32 200.063 14.256 199.893 14.128C198.655 13.232 197.183 12.784 195.477 12.784C193.301 12.784 192.234 13.872 192.277 16.048C195.05 16.9867 197.226 18.5227 198.805 20.656C200.383 22.7893 201.173 25.328 201.173 28.272C201.173 30.832 200.447 33.1787 198.997 35.312C197.589 37.4027 195.647 39.0453 193.173 40.24C190.698 41.4347 187.967 42.032 184.981 42.032C182.549 42.032 180.33 41.648 178.325 40.88C177.087 41.4773 176.17 42.0747 175.573 42.672C174.975 43.2693 174.677 44.08 174.677 45.104C174.677 45.872 174.933 46.4907 175.445 46.96C175.999 47.4293 176.703 47.664 177.557 47.664C178.837 47.664 180.117 47.472 181.397 47.088C182.677 46.704 184.213 46.1493 186.005 45.424C188.095 44.5707 189.823 43.952 191.189 43.568C192.554 43.1413 193.983 42.928 195.477 42.928ZM183.061 16.496C181.482 16.496 180.287 16.944 179.477 17.84C178.666 18.736 178.26 20.0587 178.26 21.808C178.26 24.4533 178.751 27.2693 179.733 30.256C180.757 33.2 182.058 35.696 183.637 37.744C185.215 39.7493 186.858 40.752 188.565 40.752C190.143 40.752 191.338 40.3253 192.149 39.472C192.959 38.576 193.365 37.3173 193.365 35.696C193.365 33.3493 192.831 30.6613 191.765 27.632C190.698 24.56 189.354 21.936 187.733 19.76C186.111 17.584 184.554 16.496 183.061 16.496ZM194.005 59.056C195.626 59.056 196.927 58.7787 197.909 58.224C198.933 57.6693 199.445 56.8587 199.445 55.792C199.445 54.9813 199.189 54.3413 198.677 53.872C198.165 53.4027 197.439 53.168 196.501 53.168C195.221 53.168 193.983 53.3387 192.789 53.68C191.594 54.064 190.122 54.64 188.373 55.408L186.453 56.24C188.415 58.1173 190.933 59.056 194.005 59.056ZM234.478 40.048C234.52 40.0053 234.563 40.0053 234.606 40.048C234.648 40.0907 234.691 40.1547 234.734 40.24C234.776 40.2827 234.755 40.368 234.67 40.496C233.048 42.5867 230.894 44.2293 228.206 45.424C225.56 46.576 222.979 47.152 220.462 47.152C217.603 47.152 214.958 46.512 212.526 45.232C210.094 43.952 208.152 42.1387 206.702 39.792C205.251 37.4453 204.526 34.736 204.526 31.664C204.526 28.7627 205.294 26.0533 206.83 23.536C208.366 20.976 210.478 18.928 213.166 17.392C215.854 15.856 218.819 15.088 222.062 15.088C225.688 15.088 228.718 16.0053 231.15 17.84C233.582 19.6747 234.798 22.256 234.798 25.584C234.798 27.12 234.52 28.7413 233.966 30.448L214.958 31.088C216.451 34.2453 218.499 36.8907 221.102 39.024C223.704 41.1147 226.371 42.16 229.102 42.16C231.278 42.16 233.07 41.456 234.478 40.048ZM217.582 16.496C216.046 16.496 214.872 17.0293 214.062 18.096C213.294 19.1627 212.91 20.6987 212.91 22.704C212.91 25.264 213.528 27.9093 214.766 30.64C217.752 30.5973 220.376 30.4907 222.638 30.32L224.302 30.256C224.771 29.9573 225.006 29.3173 225.006 28.336C225.006 27.056 224.6 25.456 223.79 23.536C223.022 21.616 222.04 19.9733 220.846 18.608C219.694 17.2 218.606 16.496 217.582 16.496ZM243.991 26.48C244.076 26.1813 244.183 26.032 244.311 26.032C244.439 26.032 244.503 26.224 244.503 26.608C244.375 30.5333 244.78 33.9893 245.719 36.976C246.7 39.92 248.194 42.2027 250.199 43.824C252.204 45.4453 254.615 46.256 257.431 46.256C259.522 46.256 261.25 45.7653 262.615 44.784C264.023 43.76 264.727 42.0747 264.727 39.728C264.727 37.1253 263.831 34.864 262.039 32.944C260.247 31.024 257.708 29.0187 254.423 26.928C251.65 25.136 249.367 23.536 247.575 22.128C245.826 20.6773 244.418 19.1413 243.351 17.52C242.284 15.856 241.751 14.064 241.751 12.144C241.751 10.0107 242.562 8.02666 244.183 6.192C245.847 4.31467 248.13 2.82133 251.031 1.712C253.975 0.602664 257.26 0.0479965 260.887 0.0479965C262.892 0.0479965 264.983 0.32533 267.159 0.879997C269.378 1.43466 271.212 2.224 272.663 3.248C274.156 4.22933 274.903 5.33866 274.903 6.576C274.903 6.74666 274.86 7.04533 274.775 7.472L271.447 17.904C271.404 18.16 271.319 18.288 271.191 18.288C271.02 18.288 270.935 18.096 270.935 17.712C271.106 14.7253 270.658 11.952 269.591 9.392C268.567 6.832 267.052 4.80533 265.047 3.312C263.084 1.776 260.866 1.008 258.391 1.008C256.13 1.008 254.53 1.41333 253.591 2.224C252.695 3.03467 252.247 4.336 252.247 6.128C252.247 7.536 252.652 8.85866 253.463 10.096C254.316 11.2907 255.468 12.4427 256.919 13.552C258.37 14.6187 260.375 15.9627 262.935 17.584C265.623 19.248 267.82 20.7627 269.527 22.128C271.276 23.4933 272.727 25.136 273.879 27.056C275.074 28.9333 275.671 31.0667 275.671 33.456C275.671 36.1867 274.86 38.5973 273.239 40.688C271.618 42.736 269.314 44.336 266.327 45.488C263.34 46.5973 259.884 47.152 255.959 47.152C253.314 47.152 250.754 46.768 248.279 46C245.804 45.2747 243.799 44.3147 242.263 43.12C240.727 41.8827 239.959 40.624 239.959 39.344C239.959 39.1733 240.002 38.8747 240.087 38.448L243.991 26.48ZM332.912 16.112C333.083 16.112 333.168 16.2187 333.168 16.432C333.168 16.6027 333.083 16.688 332.912 16.688C331.931 16.688 331.077 17.2 330.352 18.224C329.669 19.248 328.731 21.2533 327.536 24.24L321.2 40.24C321.157 40.368 321.136 40.5387 321.136 40.752C321.136 40.9227 321.2 41.2 321.328 41.584L321.968 42.928C322.011 43.0133 322.032 43.12 322.032 43.248C322.032 43.5893 321.883 43.7813 321.584 43.824L313.328 46.96C313.2 47.0027 313.051 47.024 312.88 47.024C312.496 47.024 312.219 46.8107 312.048 46.384L305.648 29.552L301.424 40.24C301.381 40.368 301.36 40.5173 301.36 40.688C301.36 40.8587 301.381 41.0293 301.424 41.2C301.509 41.3707 301.552 41.4987 301.552 41.584L302.192 42.928C302.235 43.0133 302.256 43.12 302.256 43.248C302.256 43.5467 302.128 43.7387 301.872 43.824L293.616 46.96C293.488 47.0027 293.339 47.024 293.168 47.024C292.784 47.024 292.507 46.8107 292.336 46.384L283.76 24.304C282.651 21.36 281.733 19.3547 281.008 18.288C280.325 17.2213 279.472 16.688 278.448 16.688C278.277 16.688 278.192 16.6027 278.192 16.432C278.192 16.2187 278.277 16.112 278.448 16.112C279.387 16.1973 280.368 16.24 281.392 16.24H292.848C293.872 16.24 294.853 16.1973 295.792 16.112C295.963 16.112 296.048 16.2187 296.048 16.432C296.048 16.6027 295.963 16.688 295.792 16.688C294.427 16.688 293.744 17.4773 293.744 19.056C293.744 20.3787 294.171 22.128 295.024 24.304L300.592 38.896C300.72 39.152 300.848 39.28 300.976 39.28C301.189 39.28 301.317 39.152 301.36 38.896L305.392 28.784L303.664 24.304C302.555 21.36 301.616 19.3547 300.848 18.288C300.123 17.2213 299.184 16.688 298.032 16.688C297.861 16.688 297.776 16.6027 297.776 16.432C297.776 16.2187 297.861 16.112 298.032 16.112C299.056 16.1973 300.144 16.24 301.296 16.24H312.752C314.203 16.24 315.611 16.1973 316.976 16.112C317.189 16.112 317.296 16.2187 317.296 16.432C317.296 16.6027 317.189 16.688 316.976 16.688C314.885 16.688 313.84 17.6693 313.84 19.632C313.84 20.8693 314.203 22.4267 314.928 24.304L320.368 38.896C320.453 39.152 320.581 39.28 320.752 39.28C320.965 39.28 321.093 39.152 321.136 38.896L326.896 24.304C327.621 22.4693 327.984 20.9547 327.984 19.76C327.984 17.712 326.789 16.688 324.4 16.688C324.101 16.688 323.952 16.5813 323.952 16.368C323.952 16.1973 324.101 16.112 324.4 16.112C325.851 16.1973 327.451 16.24 329.2 16.24H329.968C330.992 16.24 331.973 16.1973 332.912 16.112ZM369.223 33.136C369.223 32.88 369.308 32.752 369.479 32.752C369.692 32.7093 369.799 32.8373 369.799 33.136C369.799 35.9947 369.33 38.4907 368.391 40.624C367.452 42.7147 366.215 44.3147 364.679 45.424C363.143 46.5333 361.522 47.088 359.815 47.088C358.279 47.088 356.914 46.448 355.719 45.168C354.524 43.8453 353.65 41.9467 353.095 39.472L352.903 38.576C352.092 41.3493 350.77 43.4613 348.935 44.912C347.1 46.3627 345.074 47.088 342.855 47.088C340.38 47.088 338.29 46.5547 336.583 45.488C334.876 44.4213 333.618 43.0347 332.807 41.328C331.996 39.6213 331.634 37.8293 331.719 35.952C331.762 33.776 332.807 32.0693 334.855 30.832C336.946 29.5947 339.698 28.976 343.111 28.976C345.97 28.976 348.53 29.2107 350.791 29.68L349.255 23.344C348.786 21.3387 348.018 19.8453 346.951 18.864C345.884 17.8827 344.412 17.392 342.535 17.392C340.018 17.392 337.927 18.0533 336.263 19.376C334.599 20.6987 333.596 22.8747 333.255 25.904C333.17 26.2453 333.042 26.416 332.871 26.416C332.7 26.416 332.615 26.2453 332.615 25.904C333.042 22.1067 334.684 19.3547 337.543 17.648C340.444 15.8987 343.708 15.024 347.335 15.024C351.346 15.024 354.354 15.7493 356.359 17.2C358.364 18.6507 359.794 21.1467 360.647 24.688L363.655 38C364.082 39.92 364.892 40.88 366.087 40.88C367.026 40.88 367.772 40.112 368.327 38.576C368.924 36.9973 369.223 35.184 369.223 33.136ZM352.071 38.32C352.242 37.936 352.327 37.4667 352.327 36.912C352.327 36.528 352.306 36.208 352.263 35.952L350.983 30.64C349.362 30.1707 347.847 29.936 346.439 29.936C344.604 29.936 343.303 30.2987 342.535 31.024C341.81 31.7067 341.447 32.9867 341.447 34.864C341.447 36.8267 341.98 38.5333 343.047 39.984C344.156 41.4347 345.65 42.16 347.527 42.16C350.044 42.16 351.559 40.88 352.071 38.32ZM394.106 15.088C396.325 15.088 398.394 15.7067 400.314 16.944C402.234 18.1387 403.77 19.9093 404.922 22.256C406.117 24.56 406.714 27.2907 406.714 30.448C406.714 33.3493 406.031 36.08 404.666 38.64C403.301 41.2 401.466 43.248 399.162 44.784C396.858 46.32 394.362 47.088 391.674 47.088C390.351 47.088 389.242 46.9387 388.346 46.64C387.45 46.384 386.533 46.0427 385.594 45.616C384.911 45.3173 384.463 45.168 384.25 45.168C383.781 45.168 383.546 45.5093 383.546 46.192V50.352C383.546 53.3387 383.887 55.408 384.57 56.56C385.253 57.712 386.298 58.3093 387.706 58.352C387.919 58.352 388.026 58.4587 388.026 58.672C388.026 58.8853 387.919 58.9707 387.706 58.928C385.658 58.8427 382.501 58.8 378.234 58.8C374.053 58.8 370.938 58.8427 368.89 58.928C368.634 58.928 368.527 58.8213 368.57 58.608C368.613 58.4373 368.783 58.352 369.082 58.352C370.405 58.352 371.386 57.7547 372.026 56.56C372.666 55.3653 372.986 53.2747 372.986 50.288V26.8C372.986 24.4107 372.73 22.768 372.218 21.872C371.706 20.9333 370.618 20.5493 368.954 20.72H368.89C368.719 20.72 368.634 20.656 368.634 20.528C368.634 20.3573 368.719 20.2507 368.89 20.208C371.365 19.696 373.946 18.928 376.634 17.904C379.365 16.88 381.647 15.7707 383.482 14.576C383.738 14.4053 383.909 14.32 383.994 14.32C384.207 14.32 384.293 14.4907 384.25 14.832L384.058 16.816L383.802 20.656C383.802 21.8933 383.909 22.4053 384.122 22.192C385.274 20.144 386.618 18.4587 388.154 17.136C389.733 15.7707 391.717 15.088 394.106 15.088ZM392.25 46.256C394.213 46.256 395.599 45.7013 396.41 44.592C397.263 43.44 397.69 41.7973 397.69 39.664C397.69 36.6347 397.157 33.648 396.09 30.704C395.066 27.7173 393.743 25.2853 392.122 23.408C390.543 21.5307 388.986 20.592 387.45 20.592C386.213 20.6347 385.253 21.232 384.57 22.384C383.93 23.4933 383.589 25.0933 383.546 27.184V27.888V32.56C383.546 35.2053 383.909 37.5733 384.634 39.664C385.402 41.712 386.447 43.3333 387.77 44.528C389.093 45.68 390.586 46.256 392.25 46.256Z" fill="#593C36"/>
<path d="M48.256 1.008C48.4693 1.008 48.576 1.11467 48.576 1.328C48.6187 1.49867 48.512 1.584 48.256 1.584C47.2747 1.62667 46.336 2.24533 45.44 3.44C44.5867 4.592 43.6053 6.576 42.496 9.392L30.656 40.048C30.5707 40.2187 30.528 40.4533 30.528 40.752C30.528 41.0507 30.592 41.328 30.72 41.584L31.04 42.352C31.1253 42.5227 31.168 42.736 31.168 42.992C31.168 43.376 30.976 43.6107 30.592 43.696L22.08 47.024C21.824 47.1093 21.632 47.152 21.504 47.152C20.992 47.152 20.6293 46.8533 20.416 46.256L6.016 9.392C4.90667 6.53333 3.94667 4.528 3.136 3.376C2.368 2.224 1.51467 1.62667 0.576 1.584C0.362667 1.584 0.256 1.49867 0.256 1.328C0.298667 1.11467 0.405333 1.008 0.576 1.008C2.112 1.136 3.11467 1.2 3.584 1.2H16.832C17.7707 1.2 19.52 1.136 22.08 1.008C22.4213 1.008 22.592 1.11467 22.592 1.328C22.592 1.49867 22.4213 1.584 22.08 1.584C20.7573 1.62667 19.648 2.01066 18.752 2.736C17.856 3.41866 17.408 4.48533 17.408 5.936C17.408 6.87466 17.664 8.048 18.176 9.456L29.696 39.344C29.7813 39.5573 29.888 39.6853 30.016 39.728C30.1867 39.728 30.2933 39.6 30.336 39.344L41.92 9.456C42.4747 8.048 42.752 6.78933 42.752 5.68C42.752 4.35733 42.368 3.35467 41.6 2.672C40.832 1.98933 39.872 1.62667 38.72 1.584C38.4213 1.584 38.272 1.49867 38.272 1.328C38.272 1.11467 38.4213 1.008 38.72 1.008C41.024 1.136 42.5813 1.2 43.392 1.2H44.928C45.6107 1.2 46.72 1.136 48.256 1.008ZM57.997 37.488C57.997 39.8773 58.253 41.8187 58.765 43.312C59.3197 44.7627 60.3437 45.5093 61.837 45.552C62.0503 45.552 62.157 45.6587 62.157 45.872C62.157 46.0853 62.0503 46.1707 61.837 46.128C61.0263 46.0853 57.997 46.064 52.749 46.064C47.4583 46.064 44.4077 46.0853 43.597 46.128C43.3837 46.128 43.277 46.0427 43.277 45.872C43.3197 45.6587 43.469 45.552 43.725 45.552C45.005 45.552 45.9437 44.8907 46.541 43.568C47.1383 42.2453 47.437 40.2187 47.437 37.488V26.8C47.437 24.4107 47.1597 22.768 46.605 21.872C46.093 20.9333 45.005 20.5493 43.341 20.72H43.277C43.149 20.72 43.0637 20.656 43.021 20.528C43.021 20.3573 43.1063 20.2507 43.277 20.208C45.7517 19.696 48.333 18.928 51.021 17.904C53.7517 16.88 56.0343 15.7707 57.869 14.576C58.125 14.4053 58.317 14.32 58.445 14.32C58.6157 14.32 58.701 14.4907 58.701 14.832C58.4023 17.904 58.2103 20.272 58.125 21.936C58.0397 23.6 57.997 25.584 57.997 27.888V37.488ZM51.085 10.992C49.3783 10.992 48.013 10.6293 46.989 9.904C46.0077 9.136 45.517 8.15467 45.517 6.96C45.517 5.424 46.1997 4.12267 47.565 3.056C48.973 1.98933 50.765 1.456 52.941 1.456C54.6477 1.456 56.013 1.86133 57.037 2.672C58.061 3.44 58.573 4.42133 58.573 5.616C58.573 7.10933 57.8477 8.38933 56.397 9.456C54.989 10.48 53.2183 10.992 51.085 10.992ZM108.373 33.136C108.373 32.88 108.458 32.752 108.629 32.752C108.842 32.7093 108.949 32.8373 108.949 33.136C108.949 35.9947 108.48 38.4907 107.541 40.624C106.602 42.7147 105.365 44.3147 103.829 45.424C102.293 46.5333 100.693 47.088 99.029 47.088C97.4503 47.088 96.0637 46.448 94.869 45.168C93.6743 43.888 92.7783 41.9893 92.181 39.472L88.021 22.576C87.6797 21.2107 87.253 20.2507 86.741 19.696C86.2717 19.0987 85.4823 18.8 84.373 18.8C82.8797 18.8 81.6637 19.568 80.725 21.104C79.829 22.64 79.253 24.6667 78.997 27.184V27.888V38.96C78.997 41.4773 79.2317 43.2053 79.701 44.144C80.213 45.04 81.2583 45.5093 82.837 45.552C83.0503 45.552 83.157 45.6587 83.157 45.872C83.157 46.0427 83.0503 46.128 82.837 46.128C80.8743 46.0427 78.2077 46 74.837 46C70.485 46 67.0717 46.0427 64.597 46.128C64.3837 46.128 64.277 46.0427 64.277 45.872C64.277 45.6587 64.405 45.552 64.661 45.552C65.7277 45.552 66.4957 45.4453 66.965 45.232C67.477 44.976 67.8397 44.3787 68.053 43.44C68.309 42.5013 68.437 40.9867 68.437 38.896V26.8C68.437 24.4107 68.1597 22.768 67.605 21.872C67.093 20.9333 66.005 20.5493 64.341 20.72H64.277C64.149 20.72 64.0637 20.656 64.021 20.528C64.021 20.3573 64.1063 20.2507 64.277 20.208C66.7517 19.696 69.333 18.928 72.021 17.904C74.7517 16.88 77.0343 15.7707 78.869 14.576C79.125 14.4053 79.317 14.32 79.445 14.32C79.6157 14.32 79.701 14.4907 79.701 14.832C79.4023 18.288 79.189 20.912 79.061 22.704C79.7863 20.528 81.0663 18.7147 82.901 17.264C84.7783 15.7707 86.997 15.024 89.557 15.024C92.245 15.024 94.3143 15.6427 95.765 16.88C97.2157 18.0747 98.2397 19.8667 98.837 22.256L102.741 38C102.997 38.9387 103.317 39.664 103.701 40.176C104.085 40.6453 104.597 40.88 105.237 40.88C106.176 40.88 106.944 40.0907 107.541 38.512C108.138 36.9333 108.416 35.1413 108.373 33.136ZM119.904 47.152C117.771 47.152 116.021 46.3627 114.656 44.784C113.291 43.1627 112.608 41.2213 112.608 38.96V18.672C112.608 18.032 112.523 17.5627 112.352 17.264C112.224 16.9227 111.861 16.752 111.264 16.752H109.024C108.768 16.752 108.64 16.688 108.64 16.56C108.683 16.432 108.811 16.3467 109.024 16.304C111.84 15.792 114.592 14.4907 117.28 12.4C119.968 10.3093 121.867 7.81333 122.976 4.912C123.019 4.61333 123.125 4.464 123.296 4.464C123.424 4.464 123.488 4.61333 123.488 4.912L123.168 14.96C123.168 15.5147 123.275 15.856 123.488 15.984C123.744 16.112 124.192 16.176 124.832 16.176H130.4C130.443 16.176 130.464 16.24 130.464 16.368C130.464 16.4533 130.421 16.5387 130.336 16.624C130.251 16.7093 130.123 16.752 129.952 16.752H124.96C124.235 16.752 123.744 16.8587 123.488 17.072C123.275 17.2853 123.168 17.6907 123.168 18.288V36.144C123.168 37.8507 123.488 39.152 124.128 40.048C124.768 40.9013 125.6 41.328 126.624 41.328C127.435 41.328 128.288 41.072 129.184 40.56C130.08 40.0053 130.933 39.2587 131.744 38.32C131.872 38.192 131.979 38.128 132.064 38.128C132.149 38.128 132.192 38.1707 132.192 38.256C132.235 38.3413 132.213 38.4693 132.128 38.64C129.909 41.584 127.755 43.7387 125.664 45.104C123.616 46.4693 121.696 47.152 119.904 47.152ZM170.286 33.136C170.286 32.88 170.371 32.752 170.542 32.752C170.755 32.7093 170.862 32.8373 170.862 33.136C170.862 35.9947 170.392 38.4907 169.454 40.624C168.515 42.7147 167.278 44.3147 165.742 45.424C164.206 46.5333 162.584 47.088 160.878 47.088C159.342 47.088 157.976 46.448 156.782 45.168C155.587 43.8453 154.712 41.9467 154.158 39.472L153.966 38.576C153.155 41.3493 151.832 43.4613 149.998 44.912C148.163 46.3627 146.136 47.088 143.918 47.088C141.443 47.088 139.352 46.5547 137.646 45.488C135.939 44.4213 134.68 43.0347 133.87 41.328C133.059 39.6213 132.696 37.8293 132.782 35.952C132.824 33.776 133.87 32.0693 135.918 30.832C138.008 29.5947 140.76 28.976 144.174 28.976C147.032 28.976 149.592 29.2107 151.854 29.68L150.318 23.344C149.848 21.3387 149.08 19.8453 148.014 18.864C146.947 17.8827 145.475 17.392 143.598 17.392C141.08 17.392 138.99 18.0533 137.326 19.376C135.662 20.6987 134.659 22.8747 134.318 25.904C134.232 26.2453 134.104 26.416 133.934 26.416C133.763 26.416 133.678 26.2453 133.678 25.904C134.104 22.1067 135.747 19.3547 138.606 17.648C141.507 15.8987 144.771 15.024 148.398 15.024C152.408 15.024 155.416 15.7493 157.422 17.2C159.427 18.6507 160.856 21.1467 161.71 24.688L164.718 38C165.144 39.92 165.955 40.88 167.15 40.88C168.088 40.88 168.835 40.112 169.39 38.576C169.987 36.9973 170.286 35.184 170.286 33.136ZM153.134 38.32C153.304 37.936 153.39 37.4667 153.39 36.912C153.39 36.528 153.368 36.208 153.326 35.952L152.046 30.64C150.424 30.1707 148.91 29.936 147.502 29.936C145.667 29.936 144.366 30.2987 143.598 31.024C142.872 31.7067 142.51 32.9867 142.51 34.864C142.51 36.8267 143.043 38.5333 144.11 39.984C145.219 41.4347 146.712 42.16 148.59 42.16C151.107 42.16 152.622 40.88 153.134 38.32ZM195.477 42.928C197.866 42.928 199.765 43.7173 201.173 45.296C202.581 46.8747 203.285 48.7307 203.285 50.864C203.285 53.4667 202.453 55.6 200.789 57.264C199.125 58.9707 196.821 59.824 193.877 59.824C190.591 59.824 187.903 58.6933 185.812 56.432C183.338 57.456 180.927 57.968 178.581 57.968C175.978 57.968 174.015 57.2853 172.693 55.92C171.37 54.5973 170.709 52.8267 170.709 50.608C170.709 48.4747 171.349 46.5547 172.629 44.848C173.909 43.1413 175.573 41.7333 177.621 40.624C175.402 39.6427 173.653 38.2347 172.373 36.4C171.093 34.5227 170.453 32.3253 170.453 29.808C170.453 26.9067 171.157 24.368 172.565 22.192C174.015 19.9733 175.957 18.2667 178.389 17.072C180.863 15.8347 183.594 15.216 186.581 15.216C188.202 15.216 189.866 15.4293 191.573 15.856C191.615 13.296 192.042 11.2053 192.853 9.584C193.706 7.92 194.73 6.72533 195.925 6C197.162 5.232 198.442 4.848 199.765 4.848C200.661 4.848 201.429 5.06133 202.069 5.488C202.709 5.91467 203.029 6.448 203.029 7.088C203.029 7.30133 203.007 7.472 202.965 7.6L201.429 13.36C201.215 14 200.895 14.32 200.469 14.32C200.255 14.32 200.063 14.256 199.893 14.128C198.655 13.232 197.183 12.784 195.477 12.784C193.301 12.784 192.234 13.872 192.277 16.048C195.05 16.9867 197.226 18.5227 198.805 20.656C200.383 22.7893 201.173 25.328 201.173 28.272C201.173 30.832 200.447 33.1787 198.997 35.312C197.589 37.4027 195.647 39.0453 193.173 40.24C190.698 41.4347 187.967 42.032 184.981 42.032C182.549 42.032 180.33 41.648 178.325 40.88C177.087 41.4773 176.17 42.0747 175.573 42.672C174.975 43.2693 174.677 44.08 174.677 45.104C174.677 45.872 174.933 46.4907 175.445 46.96C175.999 47.4293 176.703 47.664 177.557 47.664C178.837 47.664 180.117 47.472 181.397 47.088C182.677 46.704 184.213 46.1493 186.005 45.424C188.095 44.5707 189.823 43.952 191.189 43.568C192.554 43.1413 193.983 42.928 195.477 42.928ZM183.061 16.496C181.482 16.496 180.287 16.944 179.477 17.84C178.666 18.736 178.26 20.0587 178.26 21.808C178.26 24.4533 178.751 27.2693 179.733 30.256C180.757 33.2 182.058 35.696 183.637 37.744C185.215 39.7493 186.858 40.752 188.565 40.752C190.143 40.752 191.338 40.3253 192.149 39.472C192.959 38.576 193.365 37.3173 193.365 35.696C193.365 33.3493 192.831 30.6613 191.765 27.632C190.698 24.56 189.354 21.936 187.733 19.76C186.111 17.584 184.554 16.496 183.061 16.496ZM194.005 59.056C195.626 59.056 196.927 58.7787 197.909 58.224C198.933 57.6693 199.445 56.8587 199.445 55.792C199.445 54.9813 199.189 54.3413 198.677 53.872C198.165 53.4027 197.439 53.168 196.501 53.168C195.221 53.168 193.983 53.3387 192.789 53.68C191.594 54.064 190.122 54.64 188.373 55.408L186.453 56.24C188.415 58.1173 190.933 59.056 194.005 59.056ZM234.478 40.048C234.52 40.0053 234.563 40.0053 234.606 40.048C234.648 40.0907 234.691 40.1547 234.734 40.24C234.776 40.2827 234.755 40.368 234.67 40.496C233.048 42.5867 230.894 44.2293 228.206 45.424C225.56 46.576 222.979 47.152 220.462 47.152C217.603 47.152 214.958 46.512 212.526 45.232C210.094 43.952 208.152 42.1387 206.702 39.792C205.251 37.4453 204.526 34.736 204.526 31.664C204.526 28.7627 205.294 26.0533 206.83 23.536C208.366 20.976 210.478 18.928 213.166 17.392C215.854 15.856 218.819 15.088 222.062 15.088C225.688 15.088 228.718 16.0053 231.15 17.84C233.582 19.6747 234.798 22.256 234.798 25.584C234.798 27.12 234.52 28.7413 233.966 30.448L214.958 31.088C216.451 34.2453 218.499 36.8907 221.102 39.024C223.704 41.1147 226.371 42.16 229.102 42.16C231.278 42.16 233.07 41.456 234.478 40.048ZM217.582 16.496C216.046 16.496 214.872 17.0293 214.062 18.096C213.294 19.1627 212.91 20.6987 212.91 22.704C212.91 25.264 213.528 27.9093 214.766 30.64C217.752 30.5973 220.376 30.4907 222.638 30.32L224.302 30.256C224.771 29.9573 225.006 29.3173 225.006 28.336C225.006 27.056 224.6 25.456 223.79 23.536C223.022 21.616 222.04 19.9733 220.846 18.608C219.694 17.2 218.606 16.496 217.582 16.496ZM243.991 26.48C244.076 26.1813 244.183 26.032 244.311 26.032C244.439 26.032 244.503 26.224 244.503 26.608C244.375 30.5333 244.78 33.9893 245.719 36.976C246.7 39.92 248.194 42.2027 250.199 43.824C252.204 45.4453 254.615 46.256 257.431 46.256C259.522 46.256 261.25 45.7653 262.615 44.784C264.023 43.76 264.727 42.0747 264.727 39.728C264.727 37.1253 263.831 34.864 262.039 32.944C260.247 31.024 257.708 29.0187 254.423 26.928C251.65 25.136 249.367 23.536 247.575 22.128C245.826 20.6773 244.418 19.1413 243.351 17.52C242.284 15.856 241.751 14.064 241.751 12.144C241.751 10.0107 242.562 8.02666 244.183 6.192C245.847 4.31467 248.13 2.82133 251.031 1.712C253.975 0.602664 257.26 0.0479965 260.887 0.0479965C262.892 0.0479965 264.983 0.32533 267.159 0.879997C269.378 1.43466 271.212 2.224 272.663 3.248C274.156 4.22933 274.903 5.33866 274.903 6.576C274.903 6.74666 274.86 7.04533 274.775 7.472L271.447 17.904C271.404 18.16 271.319 18.288 271.191 18.288C271.02 18.288 270.935 18.096 270.935 17.712C271.106 14.7253 270.658 11.952 269.591 9.392C268.567 6.832 267.052 4.80533 265.047 3.312C263.084 1.776 260.866 1.008 258.391 1.008C256.13 1.008 254.53 1.41333 253.591 2.224C252.695 3.03467 252.247 4.336 252.247 6.128C252.247 7.536 252.652 8.85866 253.463 10.096C254.316 11.2907 255.468 12.4427 256.919 13.552C258.37 14.6187 260.375 15.9627 262.935 17.584C265.623 19.248 267.82 20.7627 269.527 22.128C271.276 23.4933 272.727 25.136 273.879 27.056C275.074 28.9333 275.671 31.0667 275.671 33.456C275.671 36.1867 274.86 38.5973 273.239 40.688C271.618 42.736 269.314 44.336 266.327 45.488C263.34 46.5973 259.884 47.152 255.959 47.152C253.314 47.152 250.754 46.768 248.279 46C245.804 45.2747 243.799 44.3147 242.263 43.12C240.727 41.8827 239.959 40.624 239.959 39.344C239.959 39.1733 240.002 38.8747 240.087 38.448L243.991 26.48ZM332.912 16.112C333.083 16.112 333.168 16.2187 333.168 16.432C333.168 16.6027 333.083 16.688 332.912 16.688C331.931 16.688 331.077 17.2 330.352 18.224C329.669 19.248 328.731 21.2533 327.536 24.24L321.2 40.24C321.157 40.368 321.136 40.5387 321.136 40.752C321.136 40.9227 321.2 41.2 321.328 41.584L321.968 42.928C322.011 43.0133 322.032 43.12 322.032 43.248C322.032 43.5893 321.883 43.7813 321.584 43.824L313.328 46.96C313.2 47.0027 313.051 47.024 312.88 47.024C312.496 47.024 312.219 46.8107 312.048 46.384L305.648 29.552L301.424 40.24C301.381 40.368 301.36 40.5173 301.36 40.688C301.36 40.8587 301.381 41.0293 301.424 41.2C301.509 41.3707 301.552 41.4987 301.552 41.584L302.192 42.928C302.235 43.0133 302.256 43.12 302.256 43.248C302.256 43.5467 302.128 43.7387 301.872 43.824L293.616 46.96C293.488 47.0027 293.339 47.024 293.168 47.024C292.784 47.024 292.507 46.8107 292.336 46.384L283.76 24.304C282.651 21.36 281.733 19.3547 281.008 18.288C280.325 17.2213 279.472 16.688 278.448 16.688C278.277 16.688 278.192 16.6027 278.192 16.432C278.192 16.2187 278.277 16.112 278.448 16.112C279.387 16.1973 280.368 16.24 281.392 16.24H292.848C293.872 16.24 294.853 16.1973 295.792 16.112C295.963 16.112 296.048 16.2187 296.048 16.432C296.048 16.6027 295.963 16.688 295.792 16.688C294.427 16.688 293.744 17.4773 293.744 19.056C293.744 20.3787 294.171 22.128 295.024 24.304L300.592 38.896C300.72 39.152 300.848 39.28 300.976 39.28C301.189 39.28 301.317 39.152 301.36 38.896L305.392 28.784L303.664 24.304C302.555 21.36 301.616 19.3547 300.848 18.288C300.123 17.2213 299.184 16.688 298.032 16.688C297.861 16.688 297.776 16.6027 297.776 16.432C297.776 16.2187 297.861 16.112 298.032 16.112C299.056 16.1973 300.144 16.24 301.296 16.24H312.752C314.203 16.24 315.611 16.1973 316.976 16.112C317.189 16.112 317.296 16.2187 317.296 16.432C317.296 16.6027 317.189 16.688 316.976 16.688C314.885 16.688 313.84 17.6693 313.84 19.632C313.84 20.8693 314.203 22.4267 314.928 24.304L320.368 38.896C320.453 39.152 320.581 39.28 320.752 39.28C320.965 39.28 321.093 39.152 321.136 38.896L326.896 24.304C327.621 22.4693 327.984 20.9547 327.984 19.76C327.984 17.712 326.789 16.688 324.4 16.688C324.101 16.688 323.952 16.5813 323.952 16.368C323.952 16.1973 324.101 16.112 324.4 16.112C325.851 16.1973 327.451 16.24 329.2 16.24H329.968C330.992 16.24 331.973 16.1973 332.912 16.112ZM369.223 33.136C369.223 32.88 369.308 32.752 369.479 32.752C369.692 32.7093 369.799 32.8373 369.799 33.136C369.799 35.9947 369.33 38.4907 368.391 40.624C367.452 42.7147 366.215 44.3147 364.679 45.424C363.143 46.5333 361.522 47.088 359.815 47.088C358.279 47.088 356.914 46.448 355.719 45.168C354.524 43.8453 353.65 41.9467 353.095 39.472L352.903 38.576C352.092 41.3493 350.77 43.4613 348.935 44.912C347.1 46.3627 345.074 47.088 342.855 47.088C340.38 47.088 338.29 46.5547 336.583 45.488C334.876 44.4213 333.618 43.0347 332.807 41.328C331.996 39.6213 331.634 37.8293 331.719 35.952C331.762 33.776 332.807 32.0693 334.855 30.832C336.946 29.5947 339.698 28.976 343.111 28.976C345.97 28.976 348.53 29.2107 350.791 29.68L349.255 23.344C348.786 21.3387 348.018 19.8453 346.951 18.864C345.884 17.8827 344.412 17.392 342.535 17.392C340.018 17.392 337.927 18.0533 336.263 19.376C334.599 20.6987 333.596 22.8747 333.255 25.904C333.17 26.2453 333.042 26.416 332.871 26.416C332.7 26.416 332.615 26.2453 332.615 25.904C333.042 22.1067 334.684 19.3547 337.543 17.648C340.444 15.8987 343.708 15.024 347.335 15.024C351.346 15.024 354.354 15.7493 356.359 17.2C358.364 18.6507 359.794 21.1467 360.647 24.688L363.655 38C364.082 39.92 364.892 40.88 366.087 40.88C367.026 40.88 367.772 40.112 368.327 38.576C368.924 36.9973 369.223 35.184 369.223 33.136ZM352.071 38.32C352.242 37.936 352.327 37.4667 352.327 36.912C352.327 36.528 352.306 36.208 352.263 35.952L350.983 30.64C349.362 30.1707 347.847 29.936 346.439 29.936C344.604 29.936 343.303 30.2987 342.535 31.024C341.81 31.7067 341.447 32.9867 341.447 34.864C341.447 36.8267 341.98 38.5333 343.047 39.984C344.156 41.4347 345.65 42.16 347.527 42.16C350.044 42.16 351.559 40.88 352.071 38.32ZM394.106 15.088C396.325 15.088 398.394 15.7067 400.314 16.944C402.234 18.1387 403.77 19.9093 404.922 22.256C406.117 24.56 406.714 27.2907 406.714 30.448C406.714 33.3493 406.031 36.08 404.666 38.64C403.301 41.2 401.466 43.248 399.162 44.784C396.858 46.32 394.362 47.088 391.674 47.088C390.351 47.088 389.242 46.9387 388.346 46.64C387.45 46.384 386.533 46.0427 385.594 45.616C384.911 45.3173 384.463 45.168 384.25 45.168C383.781 45.168 383.546 45.5093 383.546 46.192V50.352C383.546 53.3387 383.887 55.408 384.57 56.56C385.253 57.712 386.298 58.3093 387.706 58.352C387.919 58.352 388.026 58.4587 388.026 58.672C388.026 58.8853 387.919 58.9707 387.706 58.928C385.658 58.8427 382.501 58.8 378.234 58.8C374.053 58.8 370.938 58.8427 368.89 58.928C368.634 58.928 368.527 58.8213 368.57 58.608C368.613 58.4373 368.783 58.352 369.082 58.352C370.405 58.352 371.386 57.7547 372.026 56.56C372.666 55.3653 372.986 53.2747 372.986 50.288V26.8C372.986 24.4107 372.73 22.768 372.218 21.872C371.706 20.9333 370.618 20.5493 368.954 20.72H368.89C368.719 20.72 368.634 20.656 368.634 20.528C368.634 20.3573 368.719 20.2507 368.89 20.208C371.365 19.696 373.946 18.928 376.634 17.904C379.365 16.88 381.647 15.7707 383.482 14.576C383.738 14.4053 383.909 14.32 383.994 14.32C384.207 14.32 384.293 14.4907 384.25 14.832L384.058 16.816L383.802 20.656C383.802 21.8933 383.909 22.4053 384.122 22.192C385.274 20.144 386.618 18.4587 388.154 17.136C389.733 15.7707 391.717 15.088 394.106 15.088ZM392.25 46.256C394.213 46.256 395.599 45.7013 396.41 44.592C397.263 43.44 397.69 41.7973 397.69 39.664C397.69 36.6347 397.157 33.648 396.09 30.704C395.066 27.7173 393.743 25.2853 392.122 23.408C390.543 21.5307 388.986 20.592 387.45 20.592C386.213 20.6347 385.253 21.232 384.57 22.384C383.93 23.4933 383.589 25.0933 383.546 27.184V27.888V32.56C383.546 35.2053 383.909 37.5733 384.634 39.664C385.402 41.712 386.447 43.3333 387.77 44.528C389.093 45.68 390.586 46.256 392.25 46.256Z" fill="url(#paint0_linear_142_149)"/>
<defs>
<linearGradient id="paint0_linear_142_149" x1="204" y1="-15" x2="204" y2="62" gradientUnits="userSpaceOnUse">
<stop stop-color="#B8F5F"/>
<stop offset="1" stop-color="#B86F5F" stop-opacity="0"/>
</linearGradient>
</defs>
</svg>
